<svg width="24" height="25" viewBox="0 0 24 25" xmlns="http://www.w3.org/2000/svg">
    <path d="M12 14c2.891 0 5.522.913 7.485 2.405l.263.207A3.094 3.094 0 0 1 21 19.1V22H3v-2.9c0-1.004.477-1.896 1.217-2.462L4 16.822C6.006 15.084 8.848 14 12 14zm0 1c-2.831 0-5.464.949-7.344 2.578l-.133.135A2.092 2.092 0 0 0 4 19.1V21h16v-1.9c0-.617-.267-1.188-.736-1.595l-.384-.304C17.035 15.799 14.6 15 12 15zm0-12c2.762 0 5 2.237 5 5 0 2.762-2.238 5-5 5s-5-2.238-5-5c0-2.763 2.238-5 5-5zm0 1C9.79 4 8 5.79 8 8s1.79 4 4 4 4-1.79 4-4-1.79-4-4-4z" fill="#1A1A1A" fill-rule="evenodd"/>
</svg>
