<?xml version="1.0" encoding="utf-8"?>
<!-- Generator: Adobe Illustrator 23.0.2, SVG Export Plug-In . SVG Version: 6.00 Build 0)  -->
<svg version="1.1" id="Layer_1" xmlns="http://www.w3.org/2000/svg" xmlns:xlink="http://www.w3.org/1999/xlink" x="0px" y="0px"
	 viewBox="0 0 850.4 850.4" style="enable-background:new 0 0 850.4 850.4;" xml:space="preserve">
<style type="text/css">
	.st0{fill-rule:evenodd;clip-rule:evenodd;}
</style>
<path class="st0" d="M218.7,767.4c-27.7-1.7-55.9-8.1-82.2-15.5c-42.6-11.9-82.9-29-120.9-51.7c-4.1-2.5-8.2-5-12.3-7.5
	c45.8,4.3,90.5,0.9,134.5-11.6c41.5-11.8,109.4-46.7,119.7-61.3c-1.6-0.1-3.1-0.3-4.7-0.3c-12-0.4-23.9-2.3-35.4-5.5
	c-39.3-10.7-71.1-32.4-95.4-65c-11.1-14.9-19.6-31.1-25-49l-0.1,0c1.1-1,2.3-0.2,3.3,0c19.4,3.2,38.9,3.2,58.3-0.1
	c5-0.8,10-1.7,15.6-3.6C77.1,474.5,33.3,388.8,35.9,324.2c24.1,13.1,49.8,20.3,78.1,21.5c-37.8-26.6-62.5-61.4-72.6-105.6
	c-10.1-44.2-3.4-86.3,18.9-126c0.5,0.5,0.8,0.7,1,1c19.9,24.1,41.8,46.3,65.8,66.3c40.2,33.5,84.6,60,133.1,79.5
	c31.3,12.5,63.7,21.7,96.9,27.5c19.1,3.3,38.4,5.7,57.8,6.6c1.8,0.1,3.2,0.5,2.6-2.4c-5.2-23.8-5.6-47.6-0.5-71.4
	c10.8-50.3,38.3-88.7,82.4-115.2c41.8-25.1,94-30.5,140.3-15.6c27.4,8.8,51.9,24,72,44.6c1.4,1.4,2.7,2,4.6,1.5
	c29.9-6.3,58.5-16.1,85.8-29.8c7.1-3.6,14-7.4,21.6-11.5c-13.8,40.8-38.8,72-74.4,95c16.9-1.5,33.2-5,49.4-9.4
	c16.2-4.4,32-10.1,48.2-17.2c-1,1.6-1.5,2.4-2.1,3.2c-22.1,32.1-48.6,59.9-79.9,83.1c-3.3,2.4-4.6,4.8-4.4,8.9
	c1.5,29.1-0.6,58.1-4.8,86.9c-5.3,36.4-14.7,71.7-27.7,106c-23.6,62.1-57.6,117.8-102.9,166.6c-37.1,39.9-79.7,72.6-128.2,97.6
	c-39.2,20.2-81.1,34.6-124.3,43.3c-12.5,2.5-25.1,4.5-37.7,6.1c-33.4,4.3-67.4,2.1-101.2,2.4C228.9,767.9,223.8,767.8,218.7,767.4z"
	/>
</svg>
